<svg width="40" height="40" viewBox="0 0 40 40" fill="none" xmlns="http://www.w3.org/2000/svg">
<rect width="40" height="40" rx="4" fill="#2358B6"/>
<path d="M20 30C18.6167 30 17.3167 29.7375 16.1 29.2125C14.8833 28.6875 13.825 27.975 12.925 27.075C12.025 26.175 11.3125 25.1167 10.7875 23.9C10.2625 22.6833 10 21.3833 10 20C10 18.6167 10.2625 17.3167 10.7875 16.1C11.3125 14.8833 12.025 13.825 12.925 12.925C13.825 12.025 14.8833 11.3125 16.1 10.7875C17.3167 10.2625 18.6167 10 20 10C21.0833 10 22.1083 10.1583 23.075 10.475C24.0417 10.7917 24.9333 11.2333 25.75 11.8L24.3 13.275C23.6667 12.875 22.9917 12.5625 22.275 12.3375C21.5583 12.1125 20.8 12 20 12C17.7833 12 15.8958 12.7792 14.3375 14.3375C12.7792 15.8958 12 17.7833 12 20C12 22.2167 12.7792 24.1042 14.3375 25.6625C15.8958 27.2208 17.7833 28 20 28C22.2167 28 24.1042 27.2208 25.6625 25.6625C27.2208 24.1042 28 22.2167 28 20C28 19.7 27.9833 19.4 27.95 19.1C27.9167 18.8 27.8667 18.5083 27.8 18.225L29.425 16.6C29.6083 17.1333 29.75 17.6833 29.85 18.25C29.95 18.8167 30 19.4 30 20C30 21.3833 29.7375 22.6833 29.2125 23.9C28.6875 25.1167 27.975 26.175 27.075 27.075C26.175 27.975 25.1167 28.6875 23.9 29.2125C22.6833 29.7375 21.3833 30 20 30ZM18.6 24.6L14.35 20.35L15.75 18.95L18.6 21.8L28.6 11.775L30 13.175L18.6 24.6Z" fill="white"/>
</svg>
